PathFileType	4	(X/Y/Z)	C:/Users/beibeiliu/ov580/test_trc/User2\sequence.12_training_dense_left.trc
DataRate	CameraRate	NumFrames	NumMarkers	Units	OrigDataRate	OrigDataStartFrame	OrigNumFrames
120	120	20	19	mm	120	168	446
Frame#	Time	ThumbCMC			ThumbMCP			ThumbIP			ThumbTip			IndexMCP			IndexPIP			IndexTip			MiddleMCP			MiddlePIP			MiddleTip			RingMCP			RingPIP			RingTip			PinkyMCP			PinkyPIP			PinkyTip			BackHand1			BackHand2			BackHand3	
		X0	Y0	Z0	X1	Y1	Z1	X2	Y2	Z2	X3	Y3	Z3	X4	Y4	Z4	X5	Y5	Z5	X6	Y6	Z6	X7	Y7	Z7	X8	Y8	Z8	X9	Y9	Z9	X10	Y10	Z10	X11	Y11	Z11	X12	Y12	Z12	X13	Y13	Z13	X14	Y14	Z14	X15	Y15	Z15	X16	Y16	Z16	X17	Y17	Z17	X18	Y18	Z18	
167	1.39167	-246.754	-10.4937	152.113	-266.196	-5.43652	118.774	-279.033	-4.85877	87.3739	-271.699	-19.0761	59.0989	-275.295	-74.9673	98.8031	-279.491	-67.6438	66.2132	-270.409	-40.445	48.6105	-251.989	-97.1902	96.5152	-266.056	-106.458	68.0718	-274.871	-107.614	33.1386	-230.003	-94.8926	93.5573	-241.849	-107.268	65.5721	-253.644	-106.25	36.0101	-203.717	-86.6686	91.3893	-208.747	-100.852	66.5856	-216.662	-112.526	45.8965	-201.911	-71.8752	136.551	-188.603	-52.7151	161.407	-230.678	-52.1715	158.573	
168	1.4	-244.777	-10.9584	147.375	-261.714	-0.0777673	119.495	-273.076	-6.32064	84.0847	-272.978	-15.9464	57.3475	-275.976	-71.9743	102.164	-279.818	-67.4927	67.6869	-269.467	-43.9464	47.3162	-257.363	-95.5339	100.612	-269.114	-107.247	72.0306	-279.805	-109.257	35.9726	-234.375	-98.9106	93.3016	-247.793	-107.445	70.129	-256.971	-107.937	43.8669	-204.845	-89.3563	95.4637	-215.647	-106.293	72.2442	-224.453	-114.929	54.1532	-203.533	-69.068	140.08	-188.398	-53.4085	162.087	-230.734	-49.5822	163.363	
169	1.40833	-244.859	-2.85917	149.486	-258.651	-1.34714	115.623	-270.995	-4.87426	82.845	-270.382	-12.0964	59.0252	-277.996	-67.4187	102.627	-284.573	-62.1368	69.6623	-272.72	-41.59	48.8357	-256.849	-93.4292	103.347	-275.728	-103.852	73.3221	-282.542	-107.279	43.2005	-235.335	-95.3769	100.184	-246.16	-109.672	73.4691	-259.685	-111.002	41.6942	-211.042	-89.2714	99.3117	-215.946	-106.656	76.4136	-226.899	-117.811	57.764	-207.187	-66.6366	141.86	-192.527	-51.7963	167.261	-230.704	-47.9231	162.89	
170	1.41667	-244.814	-1.23818	144.829	-258.269	9.20424	113.54	-268.756	6.24972	82.8017	-268.262	-8.62073	54.026	-280.3	-60.544	98.1123	-283.966	-55.6452	68.5706	-269.477	-35.543	45.6485	-263.18	-89.3745	101.654	-281.493	-97.9375	72.9937	-283.459	-102.293	41.5918	-241.176	-96.164	96.8016	-255.399	-105.566	72.4206	-264.731	-106.074	47.1871	-211.253	-89.2261	100.873	-224.338	-103.282	81.9192	-238.08	-117.285	59.4354	-207.21	-66.1459	140.28	-192.628	-52.3287	165.583	-231.834	-43.1546	162.755	
171	1.425	-240.523	5.42226	143.292	-250.027	12.2471	109.914	-261.651	8.65656	76.5511	-261.704	-0.466068	54.0306	-282.471	-50.6129	94.7803	-281.893	-47.3683	65.5732	-265.354	-28.3612	42.1319	-268.873	-80.7898	100.646	-283.676	-88.8008	74.3341	-292.683	-93.7259	39.3019	-248.169	-87.7729	98.6769	-259.678	-99.0664	75.9748	-273.274	-101.113	43.7272	-216.808	-86.3488	101.949	-232.914	-103.779	83.0787	-245.589	-113.406	65.4898	-213.901	-66.6111	137.586	-196.003	-49.7806	166.966	-235.715	-34.5785	160.638	
172	1.43333	-235.325	9.52379	139.993	-245.756	21.4334	106.523	-256.241	15.2575	73.1012	-257.546	6.28788	46.4087	-281.49	-41.0595	96.3314	-282.308	-38.7409	62.5554	-265.288	-20.8893	41.6092	-270.548	-72.4965	99.0796	-290.027	-79.3753	70.6651	-298.678	-84.8857	35.5465	-256.528	-83.5164	96.0946	-269.294	-92.9815	71.8096	-277.975	-95.2883	44.0878	-221.653	-86.9105	100.842	-241.352	-101.903	82.2478	-257.274	-114.809	64.6393	-220.726	-61.478	137.971	-199.74	-51.7653	163.145	-232.449	-33.927	158.387	
173	1.44167	-230.039	9.24253	137.197	-238.54	19.6771	103.202	-250.648	21.9662	68.0979	-250.323	8.71368	45.952	-280.396	-34.477	93.3188	-280.433	-27.9668	57.0112	-258.312	-18.6695	38.8039	-276.001	-64.6007	97.183	-296.087	-70.8108	67.0911	-306.799	-73.453	35.1508	-259.142	-76.1067	97.3703	-274.243	-88.6778	73.7121	-290.644	-84.9791	45.8077	-231.565	-84.2816	101.678	-250.834	-97.078	83.4364	-267.223	-109.549	67.3357	-223.505	-59.106	140.08	-204.422	-50.7947	159.908	-238.36	-28.3232	156.124	
174	1.45	-224.579	11.0856	134.493	-231.812	20.536	101.501	-242.458	25.2934	65.8392	-243.667	8.98846	45.4733	-281.484	-22.8639	93.5792	-277.551	-22.1297	57.3878	-253.541	-11.3786	36.4821	-281.561	-56.2493	96.9405	-301.179	-61.2215	66.3411	-311.298	-64.491	40.1163	-266.164	-74.392	96.5681	-286.067	-76.0463	74.0137	-298.572	-76.9603	47.1185	-238.538	-83.2104	102.434	-259.974	-91.3969	87.5781	-278.554	-101.835	71.4095	-227.564	-62.4999	137.724	-206.224	-53.6114	161.283	-235.783	-25.5951	155.887	
175	1.45833	-217.47	12.0477	135.702	-225.166	25.5712	98.8813	-233.117	24.1203	65.6687	-238.205	15.1514	39.3519	-279.383	-18.5468	90.0921	-279.085	-10.9473	59.1845	-252.68	-5.10849	36.5562	-287.225	-48.5506	97.1726	-305.31	-51.4126	71.671	-319.787	-51.2248	38.435	-273.394	-65.7496	98.0766	-294.362	-66.3765	75.8107	-307.051	-65.6811	52.0229	-247.509	-81.7738	103.752	-268.853	-87.6996	89.3275	-290.985	-93.6773	75.5582	-228.743	-57.329	139.199	-210.652	-52.2735	160.487	-234.585	-23.1341	155.662	
176	1.46667	-215.843	11.8722	131.131	-217.454	25.2181	97.2084	-224.489	26.5229	64.0996	-231.426	15.3521	39.0947	-278.29	-10.422	89.1857	-272.556	-7.47281	54.6575	-249.422	-3.90846	36.6601	-290.89	-38.7683	97.1962	-309.689	-36.653	72.3987	-325.772	-35.5725	39.246	-279.144	-59.193	98.9231	-300.156	-61.1478	78.6283	-316.57	-53.5712	49.8686	-256.134	-73.0092	105.048	-281.167	-83.4218	89.3644	-301.415	-85.1689	76.2105	-235.008	-57.9895	137.962	-215.092	-55.2113	160.206	-238.27	-20.7496	153.648	
177	1.475	-210.198	13.3678	132.804	-210.49	23.7771	96.5316	-216.878	25.3392	65.2958	-228.034	11.4762	39.217	-277.704	0.852879	86.257	-271.527	0.383362	55.374	-243.355	-0.220705	34.857	-290.782	-28.5943	99.6968	-314.481	-25.3789	70.1925	-326.475	-24.1554	42.3645	-286.028	-47.3183	101.404	-305.633	-49.431	81.6103	-322.315	-41.4275	52.0583	-259.39	-72.4394	106.489	-287.422	-75.6611	93.2254	-311.47	-75.0505	77.3911	-243.99	-56.079	136.828	-217.671	-58.0495	161.709	-236.643	-21.0455	155.667	
178	1.48333	-204.305	10.102	132.019	-205.929	15.8297	97.7837	-211.011	24.0307	61.4201	-220.402	12.6402	37.7416	-271.486	7.60007	89.6037	-268.978	5.19158	55.6639	-240.756	1.22583	32.5872	-294.499	-13.9294	99.3122	-314.437	-9.55676	71.8882	-327.922	-7.31156	44.0889	-287.914	-38.8213	103.959	-311.493	-39.5039	81.4079	-324.458	-27.6327	55.8748	-270.687	-66.7413	108.053	-293.008	-63.7938	95.9508	-317.227	-59.786	80.9182	-247.523	-54.1109	137.596	-227.064	-53.5292	162.576	-236.187	-16.193	156.106	
179	1.49167	-197.535	5.06864	132.707	-195.205	13.7483	99.4355	-204.002	17.5985	62.78	-213.2	9.2751	40.7845	-267.488	13.5253	84.8201	-263.102	15.8975	56.9431	-243.123	-0.334021	34.5128	-289.369	-5.24416	101.321	-309.786	1.72719	76.6002	-325.505	4.89214	47.2839	-289.635	-34.867	103.8	-310.243	-25.721	84.8378	-324.868	-16.1924	55.9215	-276.994	-60.0485	108.58	-301.259	-53.644	95.9661	-321.783	-49.8187	82.3533	-249.328	-49.9206	139.929	-227.39	-52.5855	163.528	-232.919	-16.4013	156.113	
180	1.5	-194.253	-0.388949	130.428	-188.49	7.83393	97.6481	-196.841	15.2682	58.2638	-211.757	4.54479	36.795	-260.642	16.1744	87.9557	-255.962	15.5677	52.9866	-235.084	2.9238	31.8458	-286.718	5.99447	98.2866	-306.328	16.1842	73.2463	-320.89	21.8046	46.3196	-293.348	-22.5999	102.736	-308.005	-11.8231	86.0194	-322.642	-3.01712	56.2339	-279.943	-47.9338	108.519	-302.918	-42.7619	97.4002	-323.861	-36.1509	85.2341	-252.986	-39.9518	139.605	-237.076	-51.3752	163.264	-231.094	-16.9397	153.033	
181	1.50833	-190.654	-6.9899	128.357	-183.049	3.88661	92.3986	-186.443	9.31735	59.9881	-203.758	3.56074	35.2099	-251.274	24.1677	81.9558	-248.35	20.3626	53.73	-226.826	0.481507	30.0627	-279.762	12.1935	98.6207	-294.761	27.2728	75.391	-313.091	34.8894	44.2289	-287.239	-15.4166	103.481	-306.93	1.09369	81.2349	-316.096	10.3087	57.3769	-281.336	-45.2539	108.855	-304.156	-28.3945	95.8839	-325.795	-21.0209	85.1636	-253.588	-35.8327	139.381	-235.791	-51.2533	163.739	-231.433	-13.5699	150.062	
182	1.51667	-184.627	-15.6715	129.652	-177.007	-5.02719	92.7928	-180.705	2.14895	57.3742	-194.698	-0.987229	35.1536	-241.012	25.7228	83.4523	-239.136	23.1847	51.4125	-223.948	-2.5865	29.0266	-270.48	20.7294	97.4323	-288.333	37.3475	70.0114	-299.622	44.6539	46.1377	-281.633	0.419791	100.168	-299.203	12.6794	80.3645	-311.496	23.924	52.4838	-283.412	-32.7061	108.306	-304.251	-22.9941	97.547	-323.317	-6.78531	83.4803	-254.005	-34.1597	137.906	-237.312	-47.5652	164.18	-224.42	-13.6781	150.193	
183	1.525	-183.086	-22.8477	128.019	-171.544	-15.1644	92.2218	-174.505	-7.72255	58.1873	-194.207	-10.0934	36.702	-233.051	24.8155	79.6575	-226.911	20.4985	44.6816	-218.065	-4.36686	28.7757	-261.881	21.7252	96.8997	-276.033	43.9705	68.241	-286.554	54.4237	40.6508	-275.619	3.82365	100.121	-292.827	20.4353	79.399	-298.382	33.9039	54.4457	-280.962	-27.5524	108.497	-298.093	-7.84597	95.2683	-313.452	7.36489	87.5179	-249.215	-29.5998	138.627	-241.65	-46.6042	163.859	-219.857	-16.235	150.259	
184	1.53333	-180.021	-28.8822	124.999	-168.966	-26.4236	91.6961	-173.287	-20.226	58.2026	-186.308	-19.4126	36.3725	-222.53	21.1196	78.4885	-220.026	17.3637	46.702	-217.379	-11.7342	29.1227	-253.712	26.4217	90.3444	-259.157	45.6941	68.0514	-269.354	58.3015	39.3155	-270.935	10.0839	97.2764	-279.515	27.2352	78.082	-287.688	42.4141	50.3771	-278.638	-19.0199	106.812	-291.974	1.16943	94.626	-307.704	15.8571	84.4331	-250.372	-26.617	136.769	-239.431	-44.9583	161.663	-216.777	-15.8614	146.666	
185	1.54167	-179.081	-40.5253	124.177	-169.592	-38.1422	89.8962	-172.295	-31.2576	54.7528	-190.128	-29.7758	34.7299	-212.875	16.9062	72.531	-213.618	10.7198	42.9648	-214.354	-19.7125	28.0962	-238.264	27.0068	87.9096	-247.643	43.7735	62.1391	-254.726	56.7769	33.5031	-259.684	9.94966	95.9442	-266.319	30.8393	77.145	-272.383	45.5287	48.1452	-271.015	-16.2663	104.879	-288.394	7.66735	91.6425	-296.27	24.9983	81.4099	-247.29	-23.5634	135.047	-239.381	-39.6962	158.611	-211.845	-18.4873	143.886	
186	1.55	-179.136	-52.5734	123.531	-171.926	-54.2666	88.0552	-172.455	-50.8491	52.6339	-189.866	-46.4406	32.2726	-205.158	6.32924	72.682	-207.598	-0.7454	36.1902	-212.7	-27.7097	25.1194	-230.974	19.2658	84.4764	-231.672	40.7605	54.0759	-237.631	53.009	26.9206	-250.321	14.7797	89.9941	-258.288	33.5572	70.2916	-261.735	48.2094	41.7049	-273.474	-8.98434	102.505	-278.167	11.8127	89.6949	-284.211	35.4611	77.4109	-249.983	-24.9454	133.883	-242.373	-37.5522	159.427	-208.267	-26.1212	143.847	
